<svg xmlns="http://www.w3.org/2000/svg" xmlns:xlink="http://www.w3.org/1999/xlink" width="1940" height="1672" viewBox="0 0 1940 1672">
  <defs>
    <clipPath id="clip-Artboard_1">
      <rect width="1940" height="1672"/>
    </clipPath>
  </defs>
  <g id="Artboard_1" data-name="Artboard – 1" clip-path="url(#clip-Artboard_1)">
    <path id="door-open-solid" d="M883.889,88.308A87.54,87.54,0,0,0,849.915,18.7a89.107,89.107,0,0,0-75.959-16.02l-496.912,124.3a132.4,132.4,0,0,0-100.266,128.44v981.946H88.389a88.389,88.389,0,1,0,0,176.778h795.5V88.308ZM707.112,707.03c0,48.89-29.555,88.389-66.292,88.389s-66.292-39.5-66.292-88.389,29.555-88.389,66.292-88.389S707.112,658.14,707.112,707.03ZM972.278,353.474h265.167v972.278a88.294,88.294,0,0,0,88.389,88.389h176.778a88.389,88.389,0,1,0,0-176.778h-88.389V353.474c0-97.5-79.274-176.778-176.778-176.778H972.278Z" transform="translate(174.5 128.906)" fill="#283618"/>
  </g>
</svg>
