<svg xmlns="http://www.w3.org/2000/svg" xmlns:xlink="http://www.w3.org/1999/xlink" width="3223" height="679" viewBox="0 0 3223 679">
  <defs>
    <clipPath id="clip-special">
      <rect width="3223" height="679"/>
    </clipPath>
  </defs>
  <g id="special" clip-path="url(#clip-special)">
    <g id="Group_194" data-name="Group 194" transform="translate(5.2 346.192)">
      <path id="Path_246" data-name="Path 246" d="M905.611-39.107A86.045,86.045,0,0,1,921.085-88.44,283.286,283.286,0,0,0,906.579-132.5a283.726,283.726,0,0,0-66.272-95.866Q797.38-269.2,739.436-291.721T613.142-314.23a320.116,320.116,0,0,0-90.45,13.339,369.9,369.9,0,0,0-85.863,37.514c-.271.161-.539.323-.807.484-41.066,24.729-49.66,80.737-18.77,117.392l5.691,6.752c26.23,31.129,72.117,38.082,105.459,14.73q5.752-4.029,11.8-7.644,36.262-21.67,70.441-21.676a110.943,110.943,0,0,1,47.935,10.421,119.82,119.82,0,0,1,38.761,29.177,128.666,128.666,0,0,1,25.43,44.181q8.751,25.441,8.752,55.439,0,30.852-8.752,56.687-8.758,25.854-25.43,44.6a119.78,119.78,0,0,1-38.761,29.18,110.834,110.834,0,0,1-47.935,10.418q-31.672,0-67.942-18.759Q535.14,104.1,527.92,99.66C495.449,79.7,453.59,84.553,427.526,112.368l-4.532,4.836c-33.745,36.009-26.846,93.874,14.557,120.724q1.717,1.112,3.446,2.209A374.86,374.86,0,0,0,529.362,281.4q46.264,14.575,91.28,14.586,67.526,0,123.8-22.924t97.951-64.187q40.5-40.082,63.222-94.355Z" transform="translate(1078.178 2.568)" fill="#fff"/>
      <g id="Group_115" data-name="Group 115" transform="translate(2006.782 -313.897)">
        <path id="Path_247" data-name="Path 247" d="M629.016-142.995q37.682,0,61.806-24.12t24.12-61.8q0-37.677-24.12-61.8t-61.806-24.12q-37.693,0-61.806,24.12t-24.116,61.8q0,37.7,24.116,61.8Q591.324-142.984,629.016-142.995Z" transform="translate(-543.094 314.839)" fill="#fff"/>
        <path id="Path_248" data-name="Path 248" d="M677.688,23.392l35.2-83.357V-174.59a84.793,84.793,0,0,0-84.8-84.792h0A84.793,84.793,0,0,0,543.3-174.59v242.7A84.793,84.793,0,0,0,628.091,152.9h0a84.6,84.6,0,0,0,66.356-32.035C671.648,95.766,662.859,58.5,677.688,23.392Z" transform="translate(-542.547 462.883)" fill="#fff"/>
      </g>
      <g id="Group_116" data-name="Group 116" transform="translate(2757.248 -313.533)">
        <path id="Path_249" data-name="Path 249" d="M832.425-314.74H866.7a84.813,84.813,0,0,1,84.814,84.814V131.747h171.83a84.814,84.814,0,0,1,84.814,84.814h0a84.814,84.814,0,0,1-84.814,84.818H832.425a84.818,84.818,0,0,1-84.818-84.818V-229.926A84.817,84.817,0,0,1,832.425-314.74Z" transform="translate(-747.607 314.74)" fill="#fff"/>
      </g>
      <path id="Path_250" data-name="Path 250" d="M1164.018,218.821V78.6L1043.606-217.578a155.757,155.757,0,0,0-144.29-97.1h0A155.75,155.75,0,0,0,755.831-219.5L593.223,165.587c-26.476,62.694,6.741,123.7,74.286,132a94.215,94.215,0,0,0,100.27-61.435L886.87-93.1a7.4,7.4,0,0,1,13.941.081L956.5,66.583H903.269c-39.356,0-72.873,30.6-74.271,69.93a72.581,72.581,0,0,0,72.532,75.225h105.624l8.168,23.408a94.191,94.191,0,0,0,88.935,63.16h9.111a93.216,93.216,0,0,0,67.868-28.861A82.982,82.982,0,0,1,1164.018,218.821Z" transform="translate(1573.202 1.383)" fill="#fff"/>
      <path id="Path_251" data-name="Path 251" d="M810.66,247.219c-1.2-.756-2.389-1.523-3.574-2.29-40.519-26.311-47.858-86.329-16.476-122.452a90.046,90.046,0,0,0-25.837-3.78H416.234c-13.5,0-25.265-10.4-25.668-23.889A24.646,24.646,0,0,1,415.2,69.4H707.194c45.965,0,85.129-35.712,86.814-81.643a84.824,84.824,0,0,0-84.763-88H419.763c-15.35,0-28.736-11.827-29.2-27.173a28.035,28.035,0,0,1,28.024-28.9H761.3a79.68,79.68,0,0,0,15.592-1.552c-18.142-35.576-7.009-84.858,28.787-106.416l.811-.484c7.974-4.767,16.109-9.177,24.373-13.313-13.53-24.494-39.6-37.117-69.563-37.117H344.322a92.86,92.86,0,0,0-88.766,65.611,138.2,138.2,0,0,1,13.926,30.615q.914,2.912,1.725,5.864a164.239,164.239,0,0,1,5.842,43.447v.187q0,3.413-.136,6.792A153.388,153.388,0,0,1,251.49-84.089V222.17a76.744,76.744,0,0,0,76.744,76.745H764.773c30.909,0,58.173-11.588,74.4-35.3C829.522,258.579,820.007,253.145,810.66,247.219Z" transform="translate(685.242)" fill="#fff"/>
      <path id="Path_252" data-name="Path 252" d="M101.4,103.154a506.752,506.752,0,0,0,82.12,33.517q41.046,12.572,70.389,12.572,21.786,0,34.358-7.963t12.572-24.722q0-16.755-16.34-27.232T240.919,71.31Q213.678,63.769,181,55.806A558.187,558.187,0,0,1,116.06,35.693,252.576,252.576,0,0,1,56.566,3.849,146.947,146.947,0,0,1,12.986-46.009Q-3.351-76.178-3.351-121.429q0-59.485,31-103.07,30.995-43.561,87.57-67.039Q171.785-314.985,248.042-315a505.557,505.557,0,0,1,137.846,19.272Q408-289.48,428.142-281.919A77.66,77.66,0,0,1,471.021-175.91l-3.934,8.293a77.456,77.456,0,0,1-100.138,38.13l-.752-.319a628.88,628.88,0,0,0-73.325-25.98q-35.624-10.051-61.589-10.054-15.929,0-25.98,5.868t-10.055,20.113q0,16.772,16.34,27.232,16.342,10.491,43.576,18.018t59.916,16.34a572.144,572.144,0,0,1,64.943,21.79,269.028,269.028,0,0,1,59.5,33.1,144.867,144.867,0,0,1,38.963,43.605l-.015,175.059a141.961,141.961,0,0,1-13.39,19.742q-34.369,42.323-90.5,62.848Q318.423,298.4,252.232,298.4A500.863,500.863,0,0,1,147.9,287.089c-35.484-7.545-32.729-7.427-65.119-21.672a445.39,445.39,0,0,1-52.159-27.066A74.266,74.266,0,0,1-5.2,174.915v-5.288c0-54.768,57.413-90.571,106.6-66.473Z" transform="translate(0 0.512)" fill="#fff"/>
      <path id="Path_253" data-name="Path 253" d="M432.49-314.8c63.982-1.651,117.627,32.659,136.815,93.72q.914,2.917,1.728,5.882a164.652,164.652,0,0,1,5.86,43.565v.191q0,3.424-.139,6.811C573.367-81.015,503.452-15.4,419.794-13.474L319.722-12.061a29.789,29.789,0,0,1-30.2-29.672l-.319-88.755a34.666,34.666,0,0,1,33.76-34.211l80.73-2.1A22.281,22.281,0,0,0,425.346-189v-.484a21.05,21.05,0,0,0-21.68-21.026l-99.543,2.774a39.65,39.65,0,0,0-35.308,39.381l-.1,399.105a68.5,68.5,0,0,1-68.5,68.477h0a68.493,68.493,0,0,1-68.492-68.5l.033-389.913A164.173,164.173,0,0,1,138.5-203.1c14.513-49.385,49.337-96.05,99.059-107.536,18.043-4.165,25.265-4.165,28.872-4.165Z" transform="translate(365.544 0.901)" fill="#fff"/>
    </g>
  </g>
</svg>
